# xmcd CD database file
#
# Track frame offsets:
#	150
#	29750
#	44122
#	58270
#	82240
#	103120
#	123885
#	149437
#	165135
#	182145
#	203907
#
# Disc length: 2876 seconds
#
# Revision: 4
# Processed by: cddbd v1.4PL0 Copyright (c) Steve Scherf et al.
# Submitted via: CDex 1.51
#
DISCID=a50b3a0b
DTITLE=AKIRA INOUE - DOLPHIN
DYEAR=1991
DGENRE=Jazz
TTITLE0=THE LAST DOLPHIN
TTITLE1=PEACE
TTITLE2=How'bout a policeman's swing
TTITLE3=OLD BULEU PORSCHE
TTITLE4=The 9th Moon
TTITLE5=EL TIEMPO PERDIDO
TTITLE6=PARADISE BEACH TRAGEDY
TTITLE7=AL CREPUSCULO
TTITLE8=Thousand and Sixth
TTITLE9=BOOBEE BLUS
TTITLE10=Ticked by a Tail
EXTD=YEAR: 1991
EXTT0=
EXTT1=
EXTT2=
EXTT3=
EXTT4=
EXTT5=
EXTT6=
EXTT7=
EXTT8=
EXTT9=
EXTT10=
PLAYORDER=
